# xmcd
#
# Track frame offsets:
#	150
#	16044
#	39189
#	58522
#	82404
#	107961
#	134025
#	158077
#	171362
#	190411
#	209691
#	230158
#
# Disc length: 3277 seconds
#
# Revision: 0
# Processed by: cddbd v1.5.2PL0 Copyright (c) Steve Scherf et al.
# Submitted via: audiograbber 1.83.01
#
DISCID=ae0ccb0c
DTITLE=Bon Jovi - 100,000,000 Bon Jovi fans can't be wrong CD1
DYEAR=2004
DGENRE=Rock
TTITLE0=Why aren't you dead?
TTITLE1=The radio saved my life tonight
TTITLE2=Taking it back
TTITLE3=Someday I'll be saturday night (Original demo)
TTITLE4=Miss Fourth of July
TTITLE5=Open all night
TTITLE6=These arms are open all night
TTITLE7=I get a rush
TTITLE8=Someday just might be tonight
TTITLE9=Thief of hearts
TTITLE10=Last man standing
TTITLE11=I just want to be your man
EXTD=YEAR: 2004
EXTT0=
EXTT1=
EXTT2=
EXTT3=
EXTT4=
EXTT5=
EXTT6=
EXTT7=
EXTT8=
EXTT9=
EXTT10=
EXTT11=
PLAYORDER=
